<?xml version="1.0" standalone="no"?>
<!DOCTYPE svg PUBLIC "-//W3C//DTD SVG 20010904//EN"
 "http://www.w3.org/TR/2001/REC-SVG-20010904/DTD/svg10.dtd">
<svg version="1.0" xmlns="http://www.w3.org/2000/svg"
 width="1080.000000pt" height="1080.000000pt" viewBox="0 0 1080.000000 1080.000000"
 preserveAspectRatio="xMidYMid meet">

<g transform="translate(0.000000,1080.000000) scale(0.100000,-0.100000)"
fill="#000000" stroke="none">
<path d="M5775 10234 c-3 -49 -10 -102 -15 -117 -5 -16 -12 -70 -16 -120 -3
-51 -10 -108 -15 -127 -4 -19 -15 -91 -23 -160 -9 -69 -20 -156 -26 -195 -6
-38 -8 -75 -6 -82 6 -14 86 -19 86 -5 2 34 23 213 33 277 l13 80 44 3 c25 2
79 -3 120 -12 41 -8 124 -20 184 -26 117 -12 126 -10 126 36 0 25 -23 34 -89
34 -24 0 -78 7 -120 14 -42 8 -110 18 -151 21 -42 4 -82 10 -88 14 -10 6 -10
32 -1 122 6 63 17 141 23 174 12 58 13 60 46 63 18 2 54 -2 79 -8 25 -7 100
-18 166 -26 66 -8 144 -18 172 -22 58 -9 73 -2 73 35 0 31 -23 39 -151 52
-134 13 -360 43 -426 57 l-31 6 -7 -88z"/>
<path d="M4445 9995 c-57 -26 -83 -51 -118 -114 l-25 -44 -10 39 c-6 21 -12
48 -14 59 -3 16 -10 19 -33 17 -43 -5 -51 -17 -37 -55 7 -18 12 -46 12 -61 0
-14 7 -43 15 -63 8 -19 15 -45 15 -57 0 -11 8 -52 19 -91 33 -121 42 -159 51
-210 15 -85 32 -125 51 -125 35 0 49 12 49 41 0 30 -27 148 -56 248 -9 30 -16
91 -17 136 -1 69 3 87 22 119 27 43 95 96 122 96 24 0 41 33 33 65 -7 30 -14
30 -79 0z"/>
<path d="M6566 9910 c-9 -22 -16 -48 -16 -58 0 -10 -4 -22 -8 -27 -5 -6 -21
-50 -37 -100 -15 -49 -34 -105 -43 -124 -21 -48 -21 -197 0 -236 24 -44 97
-109 148 -131 68 -29 202 -26 253 5 44 27 52 24 37 -13 -17 -46 -12 -72 17
-85 23 -11 28 -10 37 6 19 32 207 607 202 619 -7 17 -55 23 -70 9 -7 -7 -25
-53 -40 -101 -16 -49 -34 -105 -41 -124 -7 -19 -23 -62 -35 -96 -40 -115 -113
-174 -213 -174 -97 0 -186 52 -219 128 -28 63 -25 78 79 385 37 110 40 142 17
151 -36 14 -52 6 -68 -34z"/>
<path d="M7469 9713 c-45 -93 -125 -258 -179 -368 -54 -110 -101 -207 -104
-215 -4 -8 -13 -26 -21 -40 -24 -41 -19 -67 14 -78 35 -13 33 -17 133 188 36
74 120 246 187 382 67 136 121 254 121 262 0 17 -29 36 -55 36 -11 0 -42 -54
-96 -167z"/>
<path d="M3695 9782 c-46 -17 -82 -38 -121 -69 -146 -115 -147 -361 -4 -504
70 -70 127 -92 230 -92 75 0 94 4 155 32 75 34 123 74 161 133 29 45 30 54 5
68 -27 14 -45 4 -75 -41 -33 -49 -88 -84 -173 -110 l-65 -20 -66 20 c-37 12
-79 31 -93 44 -24 21 -69 79 -69 90 0 7 68 37 145 66 33 12 74 28 90 36 17 7
73 30 125 50 122 46 160 65 160 79 0 21 -58 111 -92 144 -61 58 -103 74 -203
78 -49 2 -99 0 -110 -4z m202 -84 c53 -30 79 -55 94 -89 10 -26 9 -32 -7 -44
-11 -8 -26 -15 -35 -15 -14 0 -56 -16 -134 -50 -11 -5 -45 -19 -75 -30 -30
-12 -68 -28 -85 -35 -65 -29 -98 -36 -107 -23 -15 24 -8 122 11 163 23 49 77
102 128 126 57 26 161 25 210 -3z"/>
<path d="M7888 9683 c-8 -10 -77 -124 -153 -253 -76 -129 -160 -271 -186 -315
-27 -44 -61 -102 -76 -129 -15 -27 -33 -58 -40 -70 -11 -18 -9 -24 11 -45 14
-13 30 -21 38 -19 7 3 91 138 186 299 96 162 194 327 218 367 24 41 44 77 44
82 0 4 7 13 15 20 24 20 18 55 -10 68 -32 15 -29 15 -47 -5z"/>
<path d="M5082 9520 c-46 -43 -10 -118 51 -106 43 9 57 24 57 62 0 58 -65 84
-108 44z"/>
<path d="M2999 9430 c-25 -10 -67 -33 -93 -50 -47 -32 -105 -110 -106 -142 0
-9 -4 -20 -10 -23 -5 -3 -10 -20 -10 -36 0 -41 -19 -33 -48 19 -26 47 -36 50
-71 23 -28 -21 -29 -20 43 -131 42 -65 133 -207 171 -265 17 -27 45 -70 61
-95 16 -25 32 -52 37 -60 4 -8 25 -42 47 -75 21 -33 52 -81 67 -107 30 -52 59
-62 97 -33 18 14 17 17 -26 82 -100 151 -148 226 -148 232 0 3 48 6 108 6 98
1 111 3 153 28 58 34 135 116 155 163 10 23 15 69 15 130 0 88 -2 99 -33 157
-43 81 -95 132 -171 168 -75 35 -165 39 -238 9z m161 -70 c89 -22 155 -87 193
-190 22 -58 21 -103 0 -164 -38 -107 -130 -169 -248 -169 -59 0 -79 4 -116 26
-59 35 -82 60 -118 132 -57 112 -37 222 57 306 49 44 136 81 172 73 8 -2 35
-8 60 -14z"/>
<path d="M8120 9353 c-137 -70 -163 -205 -69 -349 24 -38 54 -80 66 -94 31
-35 34 -38 78 -105 35 -52 40 -68 40 -115 0 -134 -128 -179 -270 -95 -92 54
-191 178 -209 261 -6 29 -10 31 -34 25 -24 -7 -27 -12 -26 -53 0 -38 9 -59 47
-117 123 -182 328 -284 449 -221 121 62 166 167 118 272 -23 50 -35 69 -72
119 -91 120 -139 195 -153 235 -14 42 -14 48 3 87 24 54 48 74 98 85 77 16
166 -17 256 -95 23 -21 98 -131 98 -146 1 -32 16 -38 44 -16 34 27 31 46 -23
126 -66 100 -156 170 -263 204 -81 26 -115 24 -178 -8z"/>
<path d="M2339 8915 c-63 -17 -85 -30 -142 -84 -66 -61 -93 -106 -111 -185
-14 -59 -14 -73 0 -133 17 -72 66 -156 117 -199 61 -52 128 -74 220 -74 90 0
123 10 204 62 41 27 81 77 119 148 29 54 26 199 -5 265 -48 100 -145 179 -254
204 -57 13 -88 12 -148 -4z m186 -95 c61 -30 127 -106 153 -178 26 -71 26 -71
5 -140 -34 -107 -152 -194 -257 -191 -88 2 -202 82 -245 173 -27 55 -29 164
-4 209 38 69 104 126 173 148 39 13 127 2 175 -21z"/>
<path d="M8789 8787 c-65 -62 -62 -62 -107 -15 -40 41 -41 42 -62 23 -27 -24
-26 -31 15 -77 l36 -39 -180 -177 c-193 -190 -201 -203 -185 -287 11 -63 119
-165 172 -165 28 0 35 38 11 58 -88 74 -99 89 -99 133 0 41 4 47 108 149 59
59 136 133 171 166 l63 59 68 -73 c61 -66 71 -72 89 -62 33 17 25 40 -39 108
-33 35 -60 69 -60 74 0 6 20 31 45 56 25 24 45 48 45 53 0 9 -40 49 -50 49 -4
0 -22 -15 -41 -33z"/>
<path d="M1552 8546 c-10 -23 -6 -29 74 -96 47 -40 119 -99 161 -133 42 -34
106 -87 143 -117 37 -30 103 -84 146 -119 44 -35 102 -83 130 -107 28 -24 56
-44 61 -44 10 0 53 42 53 53 0 3 -33 32 -72 64 -40 32 -105 85 -144 118 -166
139 -230 192 -269 219 -22 16 -58 47 -80 67 -22 21 -59 51 -82 68 -22 16 -44
34 -48 40 -3 6 -19 11 -34 11 -20 0 -31 -7 -39 -24z"/>
<path d="M8986 8284 c-12 -32 -5 -43 41 -66 59 -29 134 -102 162 -156 46 -90
13 -195 -75 -240 -20 -10 -26 -6 -61 41 -21 28 -51 72 -68 95 -39 59 -109 128
-148 149 -58 30 -142 15 -200 -35 -24 -21 -57 -98 -57 -132 0 -96 123 -261
206 -275 80 -14 81 -15 53 -39 -32 -26 -39 -44 -28 -73 11 -31 32 -29 84 10
24 17 101 73 171 122 154 108 200 153 215 209 16 60 4 148 -28 204 -37 63
-130 154 -185 180 -53 26 -74 28 -82 6z m-135 -265 c26 -18 70 -73 147 -183
47 -66 46 -70 -22 -113 -80 -51 -178 -25 -259 68 -38 43 -47 62 -52 103 -7 57
3 92 33 119 43 39 103 41 153 6z"/>
<path d="M1598 8041 c-103 -40 -147 -83 -195 -187 -22 -50 -25 -66 -21 -142 3
-73 9 -95 33 -136 68 -117 169 -178 302 -184 75 -4 87 -1 145 26 128 61 218
200 218 338 0 56 -12 74 -51 74 -26 0 -27 0 -31 -87 -5 -97 -23 -138 -93 -206
-34 -33 -131 -77 -171 -77 -33 0 -119 38 -116 51 2 7 18 35 36 63 19 28 84
132 145 231 l112 179 -23 18 c-34 26 -145 58 -197 58 -25 -1 -67 -9 -93 -19z
m177 -75 c19 -8 35 -18 35 -21 0 -3 -39 -67 -86 -143 -47 -75 -98 -157 -113
-181 -14 -24 -33 -52 -41 -63 -15 -19 -16 -19 -43 2 -73 57 -101 198 -55 277
45 78 85 114 148 134 42 12 119 10 155 -5z"/>
<path d="M9275 7596 c-72 -18 -125 -48 -176 -100 -72 -73 -89 -116 -89 -228 0
-89 2 -100 36 -167 40 -80 101 -137 172 -160 49 -16 53 -14 55 30 2 29 -2 33
-39 46 -49 16 -94 59 -129 120 -20 37 -25 59 -25 117 0 120 59 198 188 251 76
31 118 31 185 3 123 -51 203 -219 152 -318 -14 -27 -14 -30 7 -50 26 -24 32
-25 52 -5 38 38 33 191 -9 274 -54 107 -134 171 -240 190 -70 13 -75 13 -140
-3z"/>
<path d="M1191 7492 c-7 -17 -11 -35 -10 -41 2 -5 38 -45 79 -88 42 -43 100
-105 129 -138 30 -33 90 -97 134 -143 44 -46 75 -87 71 -92 -5 -4 -144 -10
-308 -12 -297 -5 -299 -5 -318 -27 -10 -13 -18 -32 -18 -42 0 -18 9 -19 118
-19 64 1 225 5 357 10 l240 9 22 28 c13 15 23 34 23 42 0 14 -98 121 -357 390
l-149 155 -13 -32z"/>
<path d="M10030 7009 c-14 -6 -47 -17 -75 -24 -27 -8 -63 -18 -80 -24 -16 -6
-97 -29 -180 -52 -82 -23 -179 -51 -215 -61 -36 -10 -87 -25 -115 -33 -27 -8
-72 -20 -100 -28 -47 -13 -50 -16 -53 -51 -4 -43 15 -55 56 -36 15 7 52 18 82
24 l55 11 71 -42 c39 -24 76 -43 82 -43 5 0 15 -7 22 -15 13 -16 -8 -51 -163
-265 -64 -89 -68 -98 -64 -138 3 -24 8 -46 12 -50 8 -8 50 39 100 113 31 45
128 180 181 250 l21 28 79 -44 c43 -24 87 -48 96 -54 9 -5 43 -26 75 -45 81
-49 97 -55 88 -33 -4 10 -11 31 -16 47 -4 16 -19 36 -31 45 -29 21 -254 159
-293 180 -58 32 -145 91 -145 98 0 5 39 18 88 31 48 13 107 30 132 38 25 7 79
23 120 34 41 12 93 27 115 35 22 7 57 16 77 19 54 10 81 35 73 69 -6 22 -12
27 -39 26 -17 0 -42 -5 -56 -10z"/>
<path d="M1070 6711 c-107 -23 -191 -103 -230 -216 -24 -71 -25 -130 -3 -198
41 -129 131 -205 272 -229 123 -21 242 18 316 104 82 96 113 275 65 380 -23
53 -31 61 -54 52 -27 -10 -28 -47 -6 -108 22 -59 22 -74 -2 -158 -31 -109
-134 -198 -231 -198 -34 0 -49 4 -54 16 -3 9 4 54 16 100 11 47 21 95 21 107
0 12 6 39 14 62 8 22 19 65 25 95 7 30 18 83 25 118 8 35 10 65 5 68 -16 9
-143 13 -179 5z m104 -101 c-2 -35 -13 -87 -40 -190 -8 -30 -19 -75 -24 -100
-5 -25 -15 -70 -23 -100 -16 -63 -27 -66 -91 -22 -105 72 -133 222 -60 334 42
66 135 118 204 115 33 -2 35 -4 34 -37z"/>
<path d="M840 5950 c-8 -5 -25 -10 -37 -10 -39 0 -127 -52 -180 -106 -55 -57
-102 -143 -115 -214 -13 -72 -27 -256 -27 -377 -1 -112 -1 -113 23 -113 13 0
115 -4 227 -10 112 -5 304 -11 427 -14 l223 -5 -3 272 c-2 174 -7 279 -14 292
-6 11 -22 42 -35 68 -71 144 -219 227 -402 227 -40 0 -79 -5 -87 -10z m226
-95 c130 -52 187 -115 238 -268 12 -36 16 -87 16 -205 0 -86 -4 -163 -9 -170
-6 -11 -79 -13 -365 -12 -196 0 -363 3 -371 6 -17 7 -19 112 -6 294 6 85 13
117 36 165 30 63 134 175 164 175 9 1 27 7 41 15 35 20 205 20 256 0z"/>
<path d="M9425 5772 c-10 -10 -4 -417 6 -457 6 -22 14 -56 19 -75 27 -118 136
-234 264 -282 28 -11 87 -22 132 -25 177 -12 346 80 422 232 46 92 53 146 50
385 l-3 225 -442 1 c-244 0 -445 -2 -448 -4z m808 -86 c15 -4 17 -20 17 -158
-1 -86 -6 -179 -14 -214 -25 -119 -90 -205 -198 -261 -49 -25 -62 -28 -163
-27 -97 0 -117 3 -165 26 -162 75 -229 232 -215 502 4 72 11 133 15 136 10 6
697 2 723 -4z"/>
<path d="M9560 4817 c-19 -8 -47 -19 -62 -25 -63 -26 -112 -88 -162 -204 -24
-55 -22 -193 4 -251 25 -55 31 -60 64 -47 l26 9 -22 58 c-69 184 58 393 239
393 41 0 49 -16 33 -65 -6 -20 -19 -70 -27 -113 -20 -105 -38 -193 -57 -277
-9 -38 -16 -78 -16 -87 0 -25 71 -41 139 -33 147 17 250 114 281 263 11 55 11
72 -5 138 -16 67 -24 83 -71 134 -72 78 -141 110 -248 116 -55 3 -92 0 -116
-9z m255 -115 c28 -15 62 -45 80 -70 28 -41 30 -50 30 -135 0 -86 -2 -95 -30
-137 -17 -25 -53 -60 -80 -77 -42 -28 -59 -33 -107 -33 -64 0 -70 8 -47 67 6
15 17 62 25 103 38 208 62 310 73 310 3 0 28 -13 56 -28z"/>
<path d="M1389 4666 c-19 -26 -47 -64 -64 -85 -16 -21 -66 -88 -110 -149 -59
-82 -86 -111 -102 -111 -12 -1 -24 3 -28 8 -8 14 -286 183 -292 178 -2 -3 1
-24 8 -47 10 -33 23 -48 64 -76 29 -19 57 -34 64 -34 6 0 11 -4 11 -8 0 -5 10
-14 23 -21 37 -20 115 -69 229 -144 42 -28 75 -54 73 -57 -2 -4 -32 -14 -67
-24 -35 -9 -84 -23 -109 -31 -26 -8 -53 -15 -61 -15 -8 0 -46 -9 -84 -20 -38
-12 -91 -27 -119 -35 -187 -52 -188 -52 -165 -96 14 -25 49 -24 136 1 141 41
170 49 209 58 22 6 74 20 115 32 41 11 93 25 115 30 22 5 74 19 115 30 41 12
101 27 132 34 79 18 107 38 101 71 -3 14 -9 28 -14 31 -12 7 -118 -17 -125
-28 -12 -19 -77 -7 -113 21 -20 15 -49 36 -66 44 -16 9 -38 23 -49 31 -20 17
-20 17 168 267 63 86 68 95 63 132 -8 62 -21 65 -58 13z"/>
<path d="M9770 3999 c-52 -4 -209 -10 -348 -15 -183 -5 -255 -10 -262 -20 -6
-7 -14 -29 -17 -49 -6 -36 -5 -37 238 -284 134 -136 250 -249 257 -250 18 -2
36 43 25 63 -5 8 -102 110 -216 225 -114 115 -207 214 -207 219 0 18 27 20
332 27 l297 7 11 34 c11 32 7 56 -8 52 -4 -1 -50 -5 -102 -9z"/>
<path d="M1517 3923 c-10 -22 -9 -28 6 -37 83 -50 114 -77 141 -121 29 -46 31
-57 31 -141 l0 -92 -41 -48 c-103 -122 -257 -155 -371 -80 -94 61 -137 170
-112 281 12 53 11 59 -6 71 -30 22 -44 17 -61 -23 -18 -42 -22 -166 -6 -186 5
-7 12 -25 16 -40 18 -75 120 -180 202 -210 211 -75 464 98 464 317 0 52 -22
130 -54 192 -30 59 -140 144 -186 144 -6 0 -16 -12 -23 -27z"/>
<path d="M9040 3481 c-111 -35 -176 -94 -229 -205 -27 -57 -31 -77 -31 -145 0
-85 6 -97 46 -87 22 6 24 11 24 69 0 114 67 227 162 275 72 36 218 28 218 -11
0 -10 -132 -239 -221 -382 -10 -16 -28 -47 -39 -67 l-20 -38 52 -27 c48 -25
63 -28 153 -28 116 0 156 16 229 90 88 89 118 226 74 340 -41 107 -136 188
-259 220 -75 19 -90 18 -159 -4z m319 -193 c21 -27 51 -112 51 -145 0 -34 -35
-119 -65 -159 -39 -51 -111 -84 -184 -84 -66 0 -111 15 -111 37 0 8 12 33 28
56 31 48 24 37 133 219 l82 137 24 -19 c13 -10 32 -29 42 -42z"/>
<path d="M1900 3326 c-8 -8 -90 -64 -182 -125 -183 -123 -223 -163 -237 -238
-10 -53 2 -137 24 -163 7 -8 16 -25 19 -36 10 -34 123 -141 176 -168 46 -23
49 -23 64 -7 27 30 19 50 -29 71 -86 37 -185 164 -185 237 0 44 31 98 82 142
l39 34 22 -23 c12 -13 28 -37 37 -52 62 -113 147 -207 213 -236 89 -38 209 25
236 125 11 39 5 110 -10 119 -5 3 -9 13 -9 23 0 49 -134 181 -184 181 -12 0
-31 3 -43 6 -21 6 -21 7 -6 30 8 13 21 24 29 24 22 0 26 20 10 45 -18 28 -44
32 -66 11z m80 -176 c84 -43 142 -158 121 -237 -14 -49 -62 -83 -118 -83 -36
0 -48 6 -91 48 -28 27 -59 66 -70 88 -11 21 -29 48 -40 60 -11 11 -27 35 -36
51 -14 28 -14 32 2 45 26 22 66 45 87 51 32 9 106 -3 145 -23z"/>
<path d="M8560 2915 c-19 -21 -21 -27 -10 -40 12 -14 152 -127 258 -208 20
-15 48 -37 62 -48 14 -11 81 -64 149 -117 68 -53 152 -121 187 -149 35 -29 68
-53 75 -53 6 0 19 10 29 22 25 31 15 45 -78 117 -42 33 -151 119 -242 191 -91
72 -190 150 -220 172 -30 23 -57 44 -60 48 -10 13 -112 90 -119 90 -4 0 -18
-11 -31 -25z"/>
<path d="M2267 2813 c-16 -16 -3 -40 48 -88 51 -47 55 -54 55 -95 0 -44 -1
-47 -125 -167 -69 -67 -147 -140 -175 -163 -56 -47 -42 -51 -126 42 -47 51
-66 62 -83 45 -21 -21 -11 -43 44 -104 30 -34 55 -65 55 -70 0 -5 -22 -31 -50
-58 l-50 -49 22 -23 c30 -32 44 -29 94 17 24 22 48 40 53 40 5 0 26 -19 45
-42 l36 -42 25 25 25 25 -35 34 c-19 19 -34 44 -34 55 0 11 18 34 42 53 23 19
84 73 136 120 52 48 106 98 121 112 36 33 70 97 70 133 0 42 -27 98 -68 140
-52 55 -106 80 -125 60z"/>
<path d="M8311 2604 c-78 -36 -161 -125 -190 -203 -47 -124 -13 -262 89 -360
127 -123 299 -135 436 -31 181 137 198 366 37 522 -72 71 -140 98 -238 97 -63
0 -92 -6 -134 -25z m202 -62 c63 -23 142 -92 172 -152 19 -38 25 -65 25 -115
0 -77 -19 -121 -76 -177 -113 -113 -263 -103 -380 25 -102 111 -100 248 7 353
78 77 159 98 252 66z"/>
<path d="M7702 2409 c-17 -12 -32 -22 -32 -24 0 -4 120 -188 157 -240 15 -21
31 -48 36 -58 6 -17 4 -18 -20 -11 -16 5 -59 9 -98 8 -59 0 -79 -5 -130 -33
-168 -90 -230 -270 -150 -436 54 -113 141 -183 252 -205 169 -33 357 93 380
255 3 25 9 45 14 45 4 0 17 -15 28 -34 34 -54 47 -61 77 -41 16 10 24 23 21
33 -4 15 -219 345 -307 472 -17 25 -65 97 -106 160 -41 63 -78 118 -82 122 -4
4 -22 -2 -40 -13z m173 -413 c59 -27 94 -61 132 -125 24 -40 27 -57 28 -131 0
-75 -3 -89 -26 -125 -41 -62 -80 -93 -145 -116 -98 -35 -190 -11 -266 68 -83
85 -107 226 -55 315 72 123 212 171 332 114z"/>
<path d="M2554 2373 c-91 -52 -124 -103 -124 -191 0 -70 19 -115 89 -212 163
-224 176 -259 127 -331 -48 -70 -139 -87 -230 -44 -59 28 -171 144 -196 204
-24 55 -36 61 -70 33 l-22 -18 23 -44 c13 -25 27 -49 32 -55 4 -5 21 -29 38
-52 36 -50 138 -125 208 -153 132 -52 255 -3 311 123 19 43 20 54 10 100 -13
63 -40 110 -138 245 -111 154 -124 228 -52 297 28 27 38 30 98 30 53 0 75 -5
107 -24 72 -44 125 -92 163 -149 36 -53 45 -72 72 -145 10 -27 10 -27 41 -12
27 14 30 21 25 46 -22 109 -161 274 -281 334 -76 37 -182 45 -231 18z"/>
<path d="M3194 1893 c-33 -53 -68 -111 -79 -129 -11 -17 -44 -72 -74 -120 -29
-49 -76 -126 -105 -171 -28 -45 -78 -126 -110 -179 l-60 -97 30 -24 29 -24 27
33 c15 17 34 45 43 62 9 17 34 58 55 91 22 33 43 67 47 75 4 8 41 69 83 135
41 66 97 156 123 200 27 44 66 109 88 144 38 60 39 64 23 82 -36 40 -58 26
-120 -78z"/>
<path d="M3516 1813 c-7 -16 -50 -98 -94 -183 -44 -85 -128 -249 -187 -365
-59 -115 -111 -214 -116 -219 -28 -29 9 -78 51 -69 8 2 71 113 139 246 67 133
163 319 212 413 l89 172 -25 16 c-35 23 -52 20 -69 -11z"/>
<path d="M7010 1720 c-91 -17 -178 -70 -230 -142 -38 -53 -40 -85 -3 -94 19
-5 28 -3 31 6 3 8 25 36 50 62 117 125 301 134 405 19 56 -62 63 -55 -133
-137 -131 -54 -204 -85 -245 -104 -11 -5 -37 -16 -57 -24 -46 -18 -48 -37 -9
-97 69 -107 160 -159 280 -159 58 0 79 5 139 35 80 40 124 85 159 163 22 46
24 64 21 140 -3 75 -8 97 -37 155 -36 72 -83 118 -156 155 -46 23 -150 34
-215 22z m331 -312 c9 -33 8 -54 -1 -93 -20 -80 -61 -130 -134 -165 -72 -34
-120 -38 -189 -14 -83 28 -166 125 -120 140 85 29 325 128 383 159 40 21 49
17 61 -27z"/>
<path d="M3784 1693 c-3 -10 -10 -29 -16 -43 -6 -14 -14 -38 -19 -55 -4 -16
-19 -61 -34 -100 -14 -38 -37 -104 -51 -145 -14 -41 -28 -82 -31 -90 -33 -86
-53 -149 -53 -167 0 -26 53 -49 68 -30 8 11 45 112 110 302 22 65 37 89 78
131 43 42 60 53 99 58 78 12 189 -18 227 -61 25 -29 58 -100 58 -126 0 -14
-18 -78 -41 -143 -22 -66 -47 -137 -54 -159 -8 -22 -21 -58 -29 -80 -22 -59
-20 -84 9 -97 36 -16 47 -2 85 112 17 52 36 104 41 115 23 54 57 167 63 211
16 114 -36 209 -146 263 -54 27 -71 31 -147 31 -57 0 -93 -5 -106 -14 -11 -7
-30 -16 -42 -20 -21 -7 -21 -6 -7 41 14 46 14 49 -7 66 -12 9 -28 17 -35 17
-8 0 -17 -8 -20 -17z"/>
<path d="M6492 1538 c-40 -11 -47 -25 -31 -64 11 -28 21 -66 53 -207 9 -38 20
-77 26 -87 18 -33 12 -122 -11 -165 -31 -60 -58 -85 -116 -111 -32 -14 -53
-30 -53 -40 0 -23 19 -54 33 -54 33 0 157 88 157 112 0 4 8 21 19 38 l18 31
17 -56 c15 -44 22 -55 39 -55 48 0 52 12 34 92 -22 91 -39 161 -67 263 -24 87
-45 172 -62 250 -6 28 -13 53 -17 56 -3 3 -21 2 -39 -3z"/>
<path d="M5716 1388 c-20 -29 -20 -72 0 -92 23 -23 67 -20 92 7 27 29 28 47 1
81 -26 33 -71 35 -93 4z"/>
<path d="M4976 1373 c-3 -15 -10 -64 -15 -108 -14 -113 -33 -219 -41 -228 -6
-7 -127 6 -290 32 -30 5 -80 12 -111 15 -56 6 -57 5 -62 -22 -9 -45 -16 -43
213 -72 139 -18 240 -40 240 -54 -2 -43 -46 -322 -54 -334 -2 -4 -44 -2 -93 4
-212 29 -263 36 -337 50 -87 16 -96 13 -96 -38 0 -24 4 -27 48 -33 120 -16
335 -47 412 -60 118 -21 139 -20 149 8 5 12 12 51 15 87 4 36 13 101 21 145 7
44 23 148 35 230 11 83 28 191 36 240 9 50 14 106 12 125 -3 32 -6 35 -40 38
-33 3 -37 0 -42 -25z"/>
</g>
</svg>
